# xmcd
#
# Track frame offsets:
#	150
#	15611
#	30422
#	47363
#	65646
#	80177
#	94355
#	106518
#	121488
#	140739
#	158653
#	171462
#	184754
#	204473
#
# Disc length: 2901 seconds
#
# Revision: 0
# Processed by: cddbd v1.5.2PL0 Copyright (c) Steve Scherf et al.
# Submitted via: EasyCDDAExtractor 15.2.5.1
#
DISCID=bc0b530e
DTITLE=Travis Sinclair - Diesel Boy
DYEAR=2011
DGENRE=Country
TTITLE0=Diesel Boy
TTITLE1=Long Shot
TTITLE2=Boundary Rider
TTITLE3=Crazy Ride
TTITLE4=Flag
TTITLE5=Get In We're Off
TTITLE6=Brothers Of The Highway
TTITLE7=Money Rolls
TTITLE8=Pray Me Back Home Again
TTITLE9=How Diesel makes me Feel
TTITLE10=White Trash
TTITLE11=Independant Trucker
TTITLE12=Redemption
TTITLE13=Bonus Track
EXTD=
EXTT0=
EXTT1=
EXTT2=
EXTT3=
EXTT4=
EXTT5=
EXTT6=
EXTT7=
EXTT8=
EXTT9=
EXTT10=
EXTT11=
EXTT12=
EXTT13=
PLAYORDER=
